<svg width="1280" height="420" viewBox="0 0 1280 420" fill="none" xmlns="http://www.w3.org/2000/svg">
  <defs>
    <linearGradient id="bg" x1="0" y1="0" x2="1280" y2="420" gradientUnits="userSpaceOnUse">
      <stop stop-color="#0B1020"/>
      <stop offset="0.55" stop-color="#111A33"/>
      <stop offset="1" stop-color="#0F766E"/>
    </linearGradient>
    <linearGradient id="accent" x1="0" y1="0" x2="1" y2="1">
      <stop stop-color="#22D3EE"/>
      <stop offset="1" stop-color="#34D399"/>
    </linearGradient>
    <filter id="blur" x="-20%" y="-20%" width="140%" height="140%">
      <feGaussianBlur stdDeviation="40"/>
    </filter>
  </defs>

  <rect width="1280" height="420" rx="28" fill="url(#bg)"/>
  <circle cx="1120" cy="84" r="110" fill="#22D3EE" fill-opacity="0.18" filter="url(#blur)"/>
  <circle cx="1040" cy="320" r="140" fill="#34D399" fill-opacity="0.16" filter="url(#blur)"/>
  <circle cx="180" cy="80" r="120" fill="#60A5FA" fill-opacity="0.14" filter="url(#blur)"/>

  <g opacity="0.14" stroke="#94A3B8">
    <path d="M0 92H1280"/>
    <path d="M0 172H1280"/>
    <path d="M0 252H1280"/>
    <path d="M0 332H1280"/>
    <path d="M160 0V420"/>
    <path d="M320 0V420"/>
    <path d="M480 0V420"/>
    <path d="M640 0V420"/>
    <path d="M800 0V420"/>
    <path d="M960 0V420"/>
    <path d="M1120 0V420"/>
  </g>

  <g>
    <rect x="72" y="62" width="82" height="82" rx="22" fill="url(#accent)"/>
    <path d="M98 84H129C143.359 84 155 95.6406 155 110C155 124.359 143.359 136 129 136H98V84Z" fill="#07131F" fill-opacity="0.85"/>
    <path d="M98 95H124C132.284 95 139 101.716 139 110C139 118.284 132.284 125 124 125H98V95Z" fill="white" fill-opacity="0.92"/>
    <path d="M109 103H123C126.866 103 130 106.134 130 110C130 113.866 126.866 117 123 117H109V103Z" fill="url(#accent)"/>
  </g>

  <g fill="white">
    <text x="182" y="108" font-family="Segoe UI, Arial, sans-serif" font-size="56" font-weight="700">Diginno</text>
    <text x="182" y="146" font-family="Segoe UI, Arial, sans-serif" font-size="22" fill="#C7D2FE">Lark systems • n8n automation • AI operations</text>
  </g>

  <g>
    <text x="76" y="214" font-family="Segoe UI, Arial, sans-serif" font-size="42" font-weight="700" fill="white">Build better operating systems for SMEs</text>
    <text x="76" y="252" font-family="Segoe UI, Arial, sans-serif" font-size="21" fill="#CBD5E1">Production-minded delivery across data, workflows, integrations, and AI-assisted operations.</text>
  </g>

  <g>
    <rect x="76" y="292" width="176" height="52" rx="16" fill="#0F172A" fill-opacity="0.72" stroke="#334155"/>
    <text x="108" y="324" font-family="Segoe UI, Arial, sans-serif" font-size="20" fill="#E2E8F0">Lark / LarkBase</text>

    <rect x="268" y="292" width="176" height="52" rx="16" fill="#0F172A" fill-opacity="0.72" stroke="#334155"/>
    <text x="322" y="324" font-family="Segoe UI, Arial, sans-serif" font-size="20" fill="#E2E8F0">n8n Workflows</text>

    <rect x="460" y="292" width="150" height="52" rx="16" fill="#0F172A" fill-opacity="0.72" stroke="#334155"/>
    <text x="509" y="324" font-family="Segoe UI, Arial, sans-serif" font-size="20" fill="#E2E8F0">AI Ops</text>
  </g>

  <g>
    <rect x="820" y="82" width="360" height="256" rx="24" fill="#0B1220" fill-opacity="0.72" stroke="#334155"/>
    <rect x="850" y="116" width="300" height="42" rx="12" fill="#111827" stroke="#334155"/>
    <circle cx="876" cy="137" r="6" fill="#22D3EE"/>
    <text x="894" y="144" font-family="Segoe UI, Arial, sans-serif" font-size="18" fill="#E2E8F0">Workflow architecture</text>

    <rect x="850" y="178" width="134" height="120" rx="16" fill="#0F172A" stroke="#334155"/>
    <text x="872" y="214" font-family="Segoe UI, Arial, sans-serif" font-size="18" fill="#93C5FD">System of record</text>
    <text x="872" y="244" font-family="Segoe UI, Arial, sans-serif" font-size="22" font-weight="700" fill="white">LarkBase</text>
    <text x="872" y="272" font-family="Segoe UI, Arial, sans-serif" font-size="22" font-weight="700" fill="white">Postgres</text>

    <rect x="998" y="178" width="152" height="120" rx="16" fill="#0F172A" stroke="#334155"/>
    <text x="1022" y="214" font-family="Segoe UI, Arial, sans-serif" font-size="18" fill="#86EFAC">Execution layer</text>
    <text x="1022" y="244" font-family="Segoe UI, Arial, sans-serif" font-size="22" font-weight="700" fill="white">n8n</text>
    <text x="1022" y="272" font-family="Segoe UI, Arial, sans-serif" font-size="22" font-weight="700" fill="white">AI Agents</text>
  </g>
</svg>
